Format : AVI
Format/Info : Audio Video Interleave
File size : 699 MiB
Duration : 1h 49mn
Overall bit rate : 895 Kbps
Writing application : VirtualDubMod 1.5.4.1 (build 2178/release)
Writing library : VirtualDubMod build 2178/release

Video
ID : 0
Format : MPEG-4 Visual
Format settings, BVOP : Yes
Format settings, QPel : No
Format settings, GMC : No warppoints
Format settings, Matrix : Default (H.263)
Muxing mode : Packed bitstream
Codec ID : DX50
Codec ID/Hint : DivX 5
Duration : 1h 49mn
Bit rate : 759 Kbps
Width : 720 pixels
Height : 304 pixels
Display aspect ratio : 2.35:1
Frame rate : 25.000 fps
Resolution : 24 bits
Colorimetry : 4:2:0
Scan type : Progressive
Bits/(Pixel*Frame) : 0.139
Stream size : 593 MiB (85%)
Writing library : DivX 6.8.4

Audio
ID : 1
Format : MPEG Audio
Format version : Version 1
Format profile : Layer 3
Codec ID : 55
Codec ID/Hint : MP3
Duration : 1h 49mn
Bit rate mode : Constant
Bit rate : 128 Kbps
Channel(s) : 2 channels
Sampling rate : 48.0 KHz
Resolution : 16 bits
Stream size : 100 MiB (14%)
Alignment : Aligned on interleaves
Interleave, duration : 80 ms (2.00 video frames)
Interleave, preload duration : 504 ms
Writing library : LAME3.98r
Encoding settings : -m j -V 4 -q 2 -lowpass 17 -b 128
Language : English

Starring

* Casey Affleck
* Jessica Alba
* Kate Hudson
* Bill Pullman

Deputy Sheriff Lou Ford (Casey Affleck) is a pillar of the community in his small west Texas town, patient and apparently thoughtful. Some people think he is a little slow and maybe boring, but that he is nevertheless ordinary and dependable. Nobody knows about what Lou calls his "sickness": He is a violent sociopath with a taste for rape and murder. It nearly got him put away when he was younger, but his adopted brother took the fall for his crimes. But now the sickness that has been lying dormant for years is about to surface again and the consequences are brutal and devastating. 
http://www.imdb.com/title/tt0954947/

screens 
http://img337.imageshack.us/img337/1695/killerinsidemedivxvicea.jpg
http://img560.imageshack.us/img560/1695/killerinsidemedivxvicea.jpg
http://img220.imageshack.us/img220/1695/killerinsidemedivxvicea.jpg
http://img163.imageshack.us/img163/1695/killerinsidemedivxvicea.jpg